  0
SECTION
  2
HEADER
  9
$ACADVER
  1
AC1009
  9
$EXTMIN
 10
0.0
 20
0.0
 30
0.0
  9
$EXTMAX
 10
1000.0
 20
1000.0
 30
0.0
  9
$FILLMODE
 70
 0
  9
$SPLFRAME
 70
 1
  0
ENDSEC
  0
SECTION
  2
TABLES
  0
TABLE
  2
LAYER
 70
1
  0
LAYER
  2
0
 70
     0
 62
     7
  6
CONTINUOUS
  0
ENDTAB
  0
ENDSEC
  0
SECTION
  2
ENTITIES
  0
LINE
  8
0
 62
     0
 10
0.00195313
 20
3.93494
 30
0.0
 11
0.00195313
 21
3.10644
 31
0.0
  0
LINE
  8
0
 62
     0
 10
0.00195313
 20
3.10644
 30
0.0
 11
0.0804579
 21
3.10644
 31
0.0
  0
LINE
  8
0
 62
     0
 10
0.0804579
 20
3.10644
 30
0.0
 11
0.0804579
 21
3.34293
 31
0.0
  0
LINE
  8
0
 62
     0
 10
0.0804579
 20
3.34293
 30
0.0
 11
0.41135
 21
3.19883
 31
0.0
  0
LINE
  8
0
 62
     0
 10
0.41135
 20
3.19883
 30
0.0
 11
0.41135
 21
2.70578
 31
0.0
  0
LINE
  8
0
 62
     0
 10
0.41135
 20
2.70578
 30
0.0
 11
0.0804579
 21
2.55892
 31
0.0
  0
LINE
  8
0
 62
     0
 10
0.0804579
 20
2.55892
 30
0.0
 11
0.0804579
 21
2.79536
 31
0.0
  0
LINE
  8
0
 62
     0
 10
0.0804579
 20
2.79536
 30
0.0
 11
0.00195313
 21
2.79536
 31
0.0
  0
LINE
  8
0
 62
     0
 10
0.00195313
 20
2.79536
 30
0.0
 11
0.00195313
 21
1.13807
 31
0.0
  0
LINE
  8
0
 62
     0
 10
0.00195313
 20
1.13807
 30
0.0
 11
0.0804579
 21
1.13807
 31
0.0
  0
LINE
  8
0
 62
     0
 10
0.0804579
 20
1.13807
 30
0.0
 11
0.0804579
 21
1.37451
 31
0.0
  0
LINE
  8
0
 62
     0
 10
0.0804579
 20
1.37451
 30
0.0
 11
0.41135
 21
1.23041
 31
0.0
  0
LINE
  8
0
 62
     0
 10
0.41135
 20
1.23041
 30
0.0
 11
0.41135
 21
0.737358
 31
0.0
  0
LINE
  8
0
 62
     0
 10
0.41135
 20
0.737358
 30
0.0
 11
0.0804579
 21
0.590494
 31
0.0
  0
LINE
  8
0
 62
     0
 10
0.0804579
 20
0.590494
 30
0.0
 11
0.0804579
 21
0.826932
 31
0.0
  0
LINE
  8
0
 62
     0
 10
0.0804579
 20
0.826932
 30
0.0
 11
0.00195313
 21
0.826932
 31
0.0
  0
LINE
  8
0
 62
     0
 10
0.00195313
 20
0.826932
 30
0.0
 11
0.00195313
 21
0.00195313
 31
0.0
  0
LINE
  8
0
 62
     0
 10
0.00195313
 20
0.00195313
 30
0.0
 11
0.828722
 21
0.00195313
 31
0.0
  0
LINE
  8
0
 62
     0
 10
0.828722
 20
0.00195313
 30
0.0
 11
0.828722
 21
0.0825196
 31
0.0
  0
LINE
  8
0
 62
     0
 10
0.828722
 20
0.0825196
 30
0.0
 11
0.592231
 21
0.0825196
 31
0.0
  0
LINE
  8
0
 62
     0
 10
0.592231
 20
0.0825196
 30
0.0
 11
0.736328
 21
0.413411
 31
0.0
  0
LINE
  8
0
 62
     0
 10
0.736328
 20
0.413411
 30
0.0
 11
1.22938
 21
0.413411
 31
0.0
  0
LINE
  8
0
 62
     0
 10
1.22938
 20
0.413411
 30
0.0
 11
1.37625
 21
0.0825196
 31
0.0
  0
LINE
  8
0
 62
     0
 10
1.37625
 20
0.0825196
 30
0.0
 11
1.13981
 21
0.0825196
 31
0.0
  0
LINE
  8
0
 62
     0
 10
1.13981
 20
0.0825196
 30
0.0
 11
1.13981
 21
0.00195313
 31
0.0
  0
LINE
  8
0
 62
     0
 10
1.13981
 20
0.00195313
 30
0.0
 11
2.7971
 21
0.00195313
 31
0.0
  0
LINE
  8
0
 62
     0
 10
2.7971
 20
0.00195313
 30
0.0
 11
2.7971
 21
0.0825196
 31
0.0
  0
LINE
  8
0
 62
     0
 10
2.7971
 20
0.0825196
 30
0.0
 11
2.56065
 21
0.0825196
 31
0.0
  0
LINE
  8
0
 62
     0
 10
2.56065
 20
0.0825196
 30
0.0
 11
2.70475
 21
0.413411
 31
0.0
  0
LINE
  8
0
 62
     0
 10
2.70475
 20
0.413411
 30
0.0
 11
3.19781
 21
0.413411
 31
0.0
  0
LINE
  8
0
 62
     0
 10
3.19781
 20
0.413411
 30
0.0
 11
3.34467
 21
0.0825196
 31
0.0
  0
LINE
  8
0
 62
     0
 10
3.34467
 20
0.0825196
 30
0.0
 11
3.10824
 21
0.0825196
 31
0.0
  0
LINE
  8
0
 62
     0
 10
3.10824
 20
0.0825196
 30
0.0
 11
3.10824
 21
0.00195313
 31
0.0
  0
LINE
  8
0
 62
     0
 10
3.10824
 20
0.00195313
 30
0.0
 11
3.93494
 21
0.00195313
 31
0.0
  0
LINE
  8
0
 62
     0
 10
3.93494
 20
0.00195313
 30
0.0
 11
3.93494
 21
0.826932
 31
0.0
  0
LINE
  8
0
 62
     0
 10
3.93494
 20
0.826932
 30
0.0
 11
3.85021
 21
0.826932
 31
0.0
  0
LINE
  8
0
 62
     0
 10
3.85021
 20
0.826932
 30
0.0
 11
3.85021
 21
0.590494
 31
0.0
  0
LINE
  8
0
 62
     0
 10
3.85021
 20
0.590494
 30
0.0
 11
3.51932
 21
0.737358
 31
0.0
  0
LINE
  8
0
 62
     0
 10
3.51932
 20
0.737358
 30
0.0
 11
3.51932
 21
1.23041
 31
0.0
  0
LINE
  8
0
 62
     0
 10
3.51932
 20
1.23041
 30
0.0
 11
3.85021
 21
1.37451
 31
0.0
  0
LINE
  8
0
 62
     0
 10
3.85021
 20
1.37451
 30
0.0
 11
3.85021
 21
1.13807
 31
0.0
  0
LINE
  8
0
 62
     0
 10
3.85021
 20
1.13807
 30
0.0
 11
3.93494
 21
1.13807
 31
0.0
  0
LINE
  8
0
 62
     0
 10
3.93494
 20
1.13807
 30
0.0
 11
3.93494
 21
2.79536
 31
0.0
  0
LINE
  8
0
 62
     0
 10
3.93494
 20
2.79536
 30
0.0
 11
3.85021
 21
2.79536
 31
0.0
  0
LINE
  8
0
 62
     0
 10
3.85021
 20
2.79536
 30
0.0
 11
3.85021
 21
2.55892
 31
0.0
  0
LINE
  8
0
 62
     0
 10
3.85021
 20
2.55892
 30
0.0
 11
3.51932
 21
2.70578
 31
0.0
  0
LINE
  8
0
 62
     0
 10
3.51932
 20
2.70578
 30
0.0
 11
3.51932
 21
3.19883
 31
0.0
  0
LINE
  8
0
 62
     0
 10
3.51932
 20
3.19883
 30
0.0
 11
3.85021
 21
3.34293
 31
0.0
  0
LINE
  8
0
 62
     0
 10
3.85021
 20
3.34293
 30
0.0
 11
3.85021
 21
3.10644
 31
0.0
  0
LINE
  8
0
 62
     0
 10
3.85021
 20
3.10644
 30
0.0
 11
3.93494
 21
3.10644
 31
0.0
  0
LINE
  8
0
 62
     0
 10
3.93494
 20
3.10644
 30
0.0
 11
3.93494
 21
3.93494
 31
0.0
  0
LINE
  8
0
 62
     0
 10
3.93494
 20
3.93494
 30
0.0
 11
3.10824
 21
3.93494
 31
0.0
  0
LINE
  8
0
 62
     0
 10
3.10824
 20
3.93494
 30
0.0
 11
3.10824
 21
3.85232
 31
0.0
  0
LINE
  8
0
 62
     0
 10
3.10824
 20
3.85232
 30
0.0
 11
3.34467
 21
3.85232
 31
0.0
  0
LINE
  8
0
 62
     0
 10
3.34467
 20
3.85232
 30
0.0
 11
3.19781
 21
3.52138
 31
0.0
  0
LINE
  8
0
 62
     0
 10
3.19781
 20
3.52138
 30
0.0
 11
2.70475
 21
3.52138
 31
0.0
  0
LINE
  8
0
 62
     0
 10
2.70475
 20
3.52138
 30
0.0
 11
2.56065
 21
3.85232
 31
0.0
  0
LINE
  8
0
 62
     0
 10
2.56065
 20
3.85232
 30
0.0
 11
2.7971
 21
3.85232
 31
0.0
  0
LINE
  8
0
 62
     0
 10
2.7971
 20
3.85232
 30
0.0
 11
2.7971
 21
3.93494
 31
0.0
  0
LINE
  8
0
 62
     0
 10
2.7971
 20
3.93494
 30
0.0
 11
1.13981
 21
3.93494
 31
0.0
  0
LINE
  8
0
 62
     0
 10
1.13981
 20
3.93494
 30
0.0
 11
1.13981
 21
3.85232
 31
0.0
  0
LINE
  8
0
 62
     0
 10
1.13981
 20
3.85232
 30
0.0
 11
1.37625
 21
3.85232
 31
0.0
  0
LINE
  8
0
 62
     0
 10
1.37625
 20
3.85232
 30
0.0
 11
1.22938
 21
3.52138
 31
0.0
  0
LINE
  8
0
 62
     0
 10
1.22938
 20
3.52138
 30
0.0
 11
0.736328
 21
3.52138
 31
0.0
  0
LINE
  8
0
 62
     0
 10
0.736328
 20
3.52138
 30
0.0
 11
0.592231
 21
3.85232
 31
0.0
  0
LINE
  8
0
 62
     0
 10
0.592231
 20
3.85232
 30
0.0
 11
0.828722
 21
3.85232
 31
0.0
  0
LINE
  8
0
 62
     0
 10
0.828722
 20
3.85232
 30
0.0
 11
0.828722
 21
3.93494
 31
0.0
  0
LINE
  8
0
 62
     0
 10
0.828722
 20
3.93494
 30
0.0
 11
0.00195313
 21
3.93494
 31
0.0
  0
LINE
  8
0
 62
     0
 10
0.293294
 20
3.85644
 30
0.0
 11
0.513781
 21
3.85644
 31
0.0
  0
LINE
  8
0
 62
     0
 10
0.513781
 20
3.85644
 30
0.0
 11
0.691569
 21
3.44672
 31
0.0
  0
LINE
  8
0
 62
     0
 10
0.691569
 20
3.44672
 30
0.0
 11
1.27696
 21
3.44672
 31
0.0
  0
LINE
  8
0
 62
     0
 10
1.27696
 20
3.44672
 30
0.0
 11
1.45475
 21
3.85644
 31
0.0
  0
LINE
  8
0
 62
     0
 10
1.45475
 20
3.85644
 30
0.0
 11
2.48215
 21
3.85644
 31
0.0
  0
LINE
  8
0
 62
     0
 10
2.48215
 20
3.85644
 30
0.0
 11
2.65994
 21
3.44672
 31
0.0
  0
LINE
  8
0
 62
     0
 10
2.65994
 20
3.44672
 30
0.0
 11
3.24539
 21
3.44672
 31
0.0
  0
LINE
  8
0
 62
     0
 10
3.24539
 20
3.44672
 30
0.0
 11
3.42312
 21
3.85644
 31
0.0
  0
LINE
  8
0
 62
     0
 10
3.42312
 20
3.85644
 30
0.0
 11
3.64361
 21
3.85644
 31
0.0
  0
LINE
  8
0
 62
     0
 10
3.64361
 20
3.85644
 30
0.0
 11
3.64361
 21
3.76167
 31
0.0
  0
LINE
  8
0
 62
     0
 10
3.64361
 20
3.76167
 30
0.0
 11
3.76167
 21
3.76167
 31
0.0
  0
LINE
  8
0
 62
     0
 10
3.76167
 20
3.76167
 30
0.0
 11
3.76167
 21
3.64361
 31
0.0
  0
LINE
  8
0
 62
     0
 10
3.76167
 20
3.64361
 30
0.0
 11
3.85612
 21
3.64361
 31
0.0
  0
LINE
  8
0
 62
     0
 10
3.85612
 20
3.64361
 30
0.0
 11
3.85612
 21
3.42312
 31
0.0
  0
LINE
  8
0
 62
     0
 10
3.85612
 20
3.42312
 30
0.0
 11
3.44678
 21
3.24533
 31
0.0
  0
LINE
  8
0
 62
     0
 10
3.44678
 20
3.24533
 30
0.0
 11
3.44678
 21
2.65994
 31
0.0
  0
LINE
  8
0
 62
     0
 10
3.44678
 20
2.65994
 30
0.0
 11
3.85612
 21
2.48215
 31
0.0
  0
LINE
  8
0
 62
     0
 10
3.85612
 20
2.48215
 30
0.0
 11
3.85612
 21
1.45475
 31
0.0
  0
LINE
  8
0
 62
     0
 10
3.85612
 20
1.45475
 30
0.0
 11
3.44678
 21
1.27696
 31
0.0
  0
LINE
  8
0
 62
     0
 10
3.44678
 20
1.27696
 30
0.0
 11
3.44678
 21
0.691515
 31
0.0
  0
LINE
  8
0
 62
     0
 10
3.44678
 20
0.691515
 30
0.0
 11
3.85612
 21
0.513781
 31
0.0
  0
LINE
  8
0
 62
     0
 10
3.85612
 20
0.513781
 30
0.0
 11
3.85612
 21
0.293294
 31
0.0
  0
LINE
  8
0
 62
     0
 10
3.85612
 20
0.293294
 30
0.0
 11
3.76167
 21
0.293294
 31
0.0
  0
LINE
  8
0
 62
     0
 10
3.76167
 20
0.293294
 30
0.0
 11
3.76167
 21
0.175239
 31
0.0
  0
LINE
  8
0
 62
     0
 10
3.76167
 20
0.175239
 30
0.0
 11
3.64361
 21
0.175239
 31
0.0
  0
LINE
  8
0
 62
     0
 10
3.64361
 20
0.175239
 30
0.0
 11
3.64361
 21
0.0807835
 31
0.0
  0
LINE
  8
0
 62
     0
 10
3.64361
 20
0.0807835
 30
0.0
 11
3.42312
 21
0.0807835
 31
0.0
  0
LINE
  8
0
 62
     0
 10
3.42312
 20
0.0807835
 30
0.0
 11
3.24539
 21
0.490126
 31
0.0
  0
LINE
  8
0
 62
     0
 10
3.24539
 20
0.490126
 30
0.0
 11
2.65994
 21
0.490126
 31
0.0
  0
LINE
  8
0
 62
     0
 10
2.65994
 20
0.490126
 30
0.0
 11
2.48215
 21
0.0807835
 31
0.0
  0
LINE
  8
0
 62
     0
 10
2.48215
 20
0.0807835
 30
0.0
 11
1.45475
 21
0.0807835
 31
0.0
  0
LINE
  8
0
 62
     0
 10
1.45475
 20
0.0807835
 30
0.0
 11
1.27696
 21
0.490126
 31
0.0
  0
LINE
  8
0
 62
     0
 10
1.27696
 20
0.490126
 30
0.0
 11
0.691569
 21
0.490126
 31
0.0
  0
LINE
  8
0
 62
     0
 10
0.691569
 20
0.490126
 30
0.0
 11
0.513781
 21
0.0807835
 31
0.0
  0
LINE
  8
0
 62
     0
 10
0.513781
 20
0.0807835
 30
0.0
 11
0.293294
 21
0.0807835
 31
0.0
  0
LINE
  8
0
 62
     0
 10
0.293294
 20
0.0807835
 30
0.0
 11
0.293294
 21
0.175239
 31
0.0
  0
LINE
  8
0
 62
     0
 10
0.293294
 20
0.175239
 30
0.0
 11
0.175239
 21
0.175239
 31
0.0
  0
LINE
  8
0
 62
     0
 10
0.175239
 20
0.175239
 30
0.0
 11
0.175239
 21
0.293294
 31
0.0
  0
LINE
  8
0
 62
     0
 10
0.175239
 20
0.293294
 30
0.0
 11
0.0804579
 21
0.293294
 31
0.0
  0
LINE
  8
0
 62
     0
 10
0.0804579
 20
0.293294
 30
0.0
 11
0.0804579
 21
0.513781
 31
0.0
  0
LINE
  8
0
 62
     0
 10
0.0804579
 20
0.513781
 30
0.0
 11
0.490181
 21
0.691515
 31
0.0
  0
LINE
  8
0
 62
     0
 10
0.490181
 20
0.691515
 30
0.0
 11
0.490181
 21
1.27696
 31
0.0
  0
LINE
  8
0
 62
     0
 10
0.490181
 20
1.27696
 30
0.0
 11
0.0804579
 21
1.45475
 31
0.0
  0
LINE
  8
0
 62
     0
 10
0.0804579
 20
1.45475
 30
0.0
 11
0.0804579
 21
2.48215
 31
0.0
  0
LINE
  8
0
 62
     0
 10
0.0804579
 20
2.48215
 30
0.0
 11
0.490181
 21
2.65994
 31
0.0
  0
LINE
  8
0
 62
     0
 10
0.490181
 20
2.65994
 30
0.0
 11
0.490181
 21
3.24533
 31
0.0
  0
LINE
  8
0
 62
     0
 10
0.490181
 20
3.24533
 30
0.0
 11
0.0804579
 21
3.42312
 31
0.0
  0
LINE
  8
0
 62
     0
 10
0.0804579
 20
3.42312
 30
0.0
 11
0.0804579
 21
3.64361
 31
0.0
  0
LINE
  8
0
 62
     0
 10
0.0804579
 20
3.64361
 30
0.0
 11
0.175239
 21
3.64361
 31
0.0
  0
LINE
  8
0
 62
     0
 10
0.175239
 20
3.64361
 30
0.0
 11
0.175239
 21
3.76167
 31
0.0
  0
LINE
  8
0
 62
     0
 10
0.175239
 20
3.76167
 30
0.0
 11
0.293294
 21
3.76167
 31
0.0
  0
LINE
  8
0
 62
     0
 10
0.293294
 20
3.76167
 30
0.0
 11
0.293294
 21
3.85644
 31
0.0
  0
LINE
  8
0
 62
     0
 10
0.00195313
 20
3.93494
 30
0.0
 11
0.00195313
 21
3.10644
 31
0.0
  0
LINE
  8
0
 62
     0
 10
0.00195313
 20
3.10644
 30
0.0
 11
0.0804579
 21
3.10644
 31
0.0
  0
LINE
  8
0
 62
     0
 10
0.0804579
 20
3.10644
 30
0.0
 11
0.0804579
 21
3.34293
 31
0.0
  0
LINE
  8
0
 62
     0
 10
0.0804579
 20
3.34293
 30
0.0
 11
0.41135
 21
3.19883
 31
0.0
  0
LINE
  8
0
 62
     0
 10
0.41135
 20
3.19883
 30
0.0
 11
0.41135
 21
2.70578
 31
0.0
  0
LINE
  8
0
 62
     0
 10
0.41135
 20
2.70578
 30
0.0
 11
0.0804579
 21
2.55892
 31
0.0
  0
LINE
  8
0
 62
     0
 10
0.0804579
 20
2.55892
 30
0.0
 11
0.0804579
 21
2.79536
 31
0.0
  0
LINE
  8
0
 62
     0
 10
0.0804579
 20
2.79536
 30
0.0
 11
0.00195313
 21
2.79536
 31
0.0
  0
LINE
  8
0
 62
     0
 10
0.00195313
 20
2.79536
 30
0.0
 11
0.00195313
 21
1.13807
 31
0.0
  0
LINE
  8
0
 62
     0
 10
0.00195313
 20
1.13807
 30
0.0
 11
0.0804579
 21
1.13807
 31
0.0
  0
LINE
  8
0
 62
     0
 10
0.0804579
 20
1.13807
 30
0.0
 11
0.0804579
 21
1.37451
 31
0.0
  0
LINE
  8
0
 62
     0
 10
0.0804579
 20
1.37451
 30
0.0
 11
0.41135
 21
1.23041
 31
0.0
  0
LINE
  8
0
 62
     0
 10
0.41135
 20
1.23041
 30
0.0
 11
0.41135
 21
0.737358
 31
0.0
  0
LINE
  8
0
 62
     0
 10
0.41135
 20
0.737358
 30
0.0
 11
0.0804579
 21
0.590494
 31
0.0
  0
LINE
  8
0
 62
     0
 10
0.0804579
 20
0.590494
 30
0.0
 11
0.0804579
 21
0.826932
 31
0.0
  0
LINE
  8
0
 62
     0
 10
0.0804579
 20
0.826932
 30
0.0
 11
0.00195313
 21
0.826932
 31
0.0
  0
LINE
  8
0
 62
     0
 10
0.00195313
 20
0.826932
 30
0.0
 11
0.00195313
 21
0.00195313
 31
0.0
  0
LINE
  8
0
 62
     0
 10
0.00195313
 20
0.00195313
 30
0.0
 11
0.828722
 21
0.00195313
 31
0.0
  0
LINE
  8
0
 62
     0
 10
0.828722
 20
0.00195313
 30
0.0
 11
0.828722
 21
0.0825196
 31
0.0
  0
LINE
  8
0
 62
     0
 10
0.828722
 20
0.0825196
 30
0.0
 11
0.592231
 21
0.0825196
 31
0.0
  0
LINE
  8
0
 62
     0
 10
0.592231
 20
0.0825196
 30
0.0
 11
0.736328
 21
0.413411
 31
0.0
  0
LINE
  8
0
 62
     0
 10
0.736328
 20
0.413411
 30
0.0
 11
1.22938
 21
0.413411
 31
0.0
  0
LINE
  8
0
 62
     0
 10
1.22938
 20
0.413411
 30
0.0
 11
1.37625
 21
0.0825196
 31
0.0
  0
LINE
  8
0
 62
     0
 10
1.37625
 20
0.0825196
 30
0.0
 11
1.13981
 21
0.0825196
 31
0.0
  0
LINE
  8
0
 62
     0
 10
1.13981
 20
0.0825196
 30
0.0
 11
1.13981
 21
0.00195313
 31
0.0
  0
LINE
  8
0
 62
     0
 10
1.13981
 20
0.00195313
 30
0.0
 11
2.7971
 21
0.00195313
 31
0.0
  0
LINE
  8
0
 62
     0
 10
2.7971
 20
0.00195313
 30
0.0
 11
2.7971
 21
0.0825196
 31
0.0
  0
LINE
  8
0
 62
     0
 10
2.7971
 20
0.0825196
 30
0.0
 11
2.56065
 21
0.0825196
 31
0.0
  0
LINE
  8
0
 62
     0
 10
2.56065
 20
0.0825196
 30
0.0
 11
2.70475
 21
0.413411
 31
0.0
  0
LINE
  8
0
 62
     0
 10
2.70475
 20
0.413411
 30
0.0
 11
3.19781
 21
0.413411
 31
0.0
  0
LINE
  8
0
 62
     0
 10
3.19781
 20
0.413411
 30
0.0
 11
3.34467
 21
0.0825196
 31
0.0
  0
LINE
  8
0
 62
     0
 10
3.34467
 20
0.0825196
 30
0.0
 11
3.10824
 21
0.0825196
 31
0.0
  0
LINE
  8
0
 62
     0
 10
3.10824
 20
0.0825196
 30
0.0
 11
3.10824
 21
0.00195313
 31
0.0
  0
LINE
  8
0
 62
     0
 10
3.10824
 20
0.00195313
 30
0.0
 11
3.93494
 21
0.00195313
 31
0.0
  0
LINE
  8
0
 62
     0
 10
3.93494
 20
0.00195313
 30
0.0
 11
3.93494
 21
0.826932
 31
0.0
  0
LINE
  8
0
 62
     0
 10
3.93494
 20
0.826932
 30
0.0
 11
3.85021
 21
0.826932
 31
0.0
  0
LINE
  8
0
 62
     0
 10
3.85021
 20
0.826932
 30
0.0
 11
3.85021
 21
0.590494
 31
0.0
  0
LINE
  8
0
 62
     0
 10
3.85021
 20
0.590494
 30
0.0
 11
3.51932
 21
0.737358
 31
0.0
  0
LINE
  8
0
 62
     0
 10
3.51932
 20
0.737358
 30
0.0
 11
3.51932
 21
1.23041
 31
0.0
  0
LINE
  8
0
 62
     0
 10
3.51932
 20
1.23041
 30
0.0
 11
3.85021
 21
1.37451
 31
0.0
  0
LINE
  8
0
 62
     0
 10
3.85021
 20
1.37451
 30
0.0
 11
3.85021
 21
1.13807
 31
0.0
  0
LINE
  8
0
 62
     0
 10
3.85021
 20
1.13807
 30
0.0
 11
3.93494
 21
1.13807
 31
0.0
  0
LINE
  8
0
 62
     0
 10
3.93494
 20
1.13807
 30
0.0
 11
3.93494
 21
2.79536
 31
0.0
  0
LINE
  8
0
 62
     0
 10
3.93494
 20
2.79536
 30
0.0
 11
3.85021
 21
2.79536
 31
0.0
  0
LINE
  8
0
 62
     0
 10
3.85021
 20
2.79536
 30
0.0
 11
3.85021
 21
2.55892
 31
0.0
  0
LINE
  8
0
 62
     0
 10
3.85021
 20
2.55892
 30
0.0
 11
3.51932
 21
2.70578
 31
0.0
  0
LINE
  8
0
 62
     0
 10
3.51932
 20
2.70578
 30
0.0
 11
3.51932
 21
3.19883
 31
0.0
  0
LINE
  8
0
 62
     0
 10
3.51932
 20
3.19883
 30
0.0
 11
3.85021
 21
3.34293
 31
0.0
  0
LINE
  8
0
 62
     0
 10
3.85021
 20
3.34293
 30
0.0
 11
3.85021
 21
3.10644
 31
0.0
  0
LINE
  8
0
 62
     0
 10
3.85021
 20
3.10644
 30
0.0
 11
3.93494
 21
3.10644
 31
0.0
  0
LINE
  8
0
 62
     0
 10
3.93494
 20
3.10644
 30
0.0
 11
3.93494
 21
3.93494
 31
0.0
  0
LINE
  8
0
 62
     0
 10
3.93494
 20
3.93494
 30
0.0
 11
3.10824
 21
3.93494
 31
0.0
  0
LINE
  8
0
 62
     0
 10
3.10824
 20
3.93494
 30
0.0
 11
3.10824
 21
3.85232
 31
0.0
  0
LINE
  8
0
 62
     0
 10
3.10824
 20
3.85232
 30
0.0
 11
3.34467
 21
3.85232
 31
0.0
  0
LINE
  8
0
 62
     0
 10
3.34467
 20
3.85232
 30
0.0
 11
3.19781
 21
3.52138
 31
0.0
  0
LINE
  8
0
 62
     0
 10
3.19781
 20
3.52138
 30
0.0
 11
2.70475
 21
3.52138
 31
0.0
  0
LINE
  8
0
 62
     0
 10
2.70475
 20
3.52138
 30
0.0
 11
2.56065
 21
3.85232
 31
0.0
  0
LINE
  8
0
 62
     0
 10
2.56065
 20
3.85232
 30
0.0
 11
2.7971
 21
3.85232
 31
0.0
  0
LINE
  8
0
 62
     0
 10
2.7971
 20
3.85232
 30
0.0
 11
2.7971
 21
3.93494
 31
0.0
  0
LINE
  8
0
 62
     0
 10
2.7971
 20
3.93494
 30
0.0
 11
1.13981
 21
3.93494
 31
0.0
  0
LINE
  8
0
 62
     0
 10
1.13981
 20
3.93494
 30
0.0
 11
1.13981
 21
3.85232
 31
0.0
  0
LINE
  8
0
 62
     0
 10
1.13981
 20
3.85232
 30
0.0
 11
1.37625
 21
3.85232
 31
0.0
  0
LINE
  8
0
 62
     0
 10
1.37625
 20
3.85232
 30
0.0
 11
1.22938
 21
3.52138
 31
0.0
  0
LINE
  8
0
 62
     0
 10
1.22938
 20
3.52138
 30
0.0
 11
0.736328
 21
3.52138
 31
0.0
  0
LINE
  8
0
 62
     0
 10
0.736328
 20
3.52138
 30
0.0
 11
0.592231
 21
3.85232
 31
0.0
  0
LINE
  8
0
 62
     0
 10
0.592231
 20
3.85232
 30
0.0
 11
0.828722
 21
3.85232
 31
0.0
  0
LINE
  8
0
 62
     0
 10
0.828722
 20
3.85232
 30
0.0
 11
0.828722
 21
3.93494
 31
0.0
  0
LINE
  8
0
 62
     0
 10
0.828722
 20
3.93494
 30
0.0
 11
0.00195313
 21
3.93494
 31
0.0
  0
LINE
  8
0
 62
     0
 10
0.293294
 20
3.85644
 30
0.0
 11
0.513781
 21
3.85644
 31
0.0
  0
LINE
  8
0
 62
     0
 10
0.513781
 20
3.85644
 30
0.0
 11
0.691569
 21
3.44672
 31
0.0
  0
LINE
  8
0
 62
     0
 10
0.691569
 20
3.44672
 30
0.0
 11
1.27696
 21
3.44672
 31
0.0
  0
LINE
  8
0
 62
     0
 10
1.27696
 20
3.44672
 30
0.0
 11
1.45475
 21
3.85644
 31
0.0
  0
LINE
  8
0
 62
     0
 10
1.45475
 20
3.85644
 30
0.0
 11
2.48215
 21
3.85644
 31
0.0
  0
LINE
  8
0
 62
     0
 10
2.48215
 20
3.85644
 30
0.0
 11
2.65994
 21
3.44672
 31
0.0
  0
LINE
  8
0
 62
     0
 10
2.65994
 20
3.44672
 30
0.0
 11
3.24539
 21
3.44672
 31
0.0
  0
LINE
  8
0
 62
     0
 10
3.24539
 20
3.44672
 30
0.0
 11
3.42312
 21
3.85644
 31
0.0
  0
LINE
  8
0
 62
     0
 10
3.42312
 20
3.85644
 30
0.0
 11
3.64361
 21
3.85644
 31
0.0
  0
LINE
  8
0
 62
     0
 10
3.64361
 20
3.85644
 30
0.0
 11
3.64361
 21
3.76167
 31
0.0
  0
LINE
  8
0
 62
     0
 10
3.64361
 20
3.76167
 30
0.0
 11
3.76167
 21
3.76167
 31
0.0
  0
LINE
  8
0
 62
     0
 10
3.76167
 20
3.76167
 30
0.0
 11
3.76167
 21
3.64361
 31
0.0
  0
LINE
  8
0
 62
     0
 10
3.76167
 20
3.64361
 30
0.0
 11
3.85612
 21
3.64361
 31
0.0
  0
LINE
  8
0
 62
     0
 10
3.85612
 20
3.64361
 30
0.0
 11
3.85612
 21
3.42312
 31
0.0
  0
LINE
  8
0
 62
     0
 10
3.85612
 20
3.42312
 30
0.0
 11
3.44678
 21
3.24533
 31
0.0
  0
LINE
  8
0
 62
     0
 10
3.44678
 20
3.24533
 30
0.0
 11
3.44678
 21
2.65994
 31
0.0
  0
LINE
  8
0
 62
     0
 10
3.44678
 20
2.65994
 30
0.0
 11
3.85612
 21
2.48215
 31
0.0
  0
LINE
  8
0
 62
     0
 10
3.85612
 20
2.48215
 30
0.0
 11
3.85612
 21
1.45475
 31
0.0
  0
LINE
  8
0
 62
     0
 10
3.85612
 20
1.45475
 30
0.0
 11
3.44678
 21
1.27696
 31
0.0
  0
LINE
  8
0
 62
     0
 10
3.44678
 20
1.27696
 30
0.0
 11
3.44678
 21
0.691515
 31
0.0
  0
LINE
  8
0
 62
     0
 10
3.44678
 20
0.691515
 30
0.0
 11
3.85612
 21
0.513781
 31
0.0
  0
LINE
  8
0
 62
     0
 10
3.85612
 20
0.513781
 30
0.0
 11
3.85612
 21
0.293294
 31
0.0
  0
LINE
  8
0
 62
     0
 10
3.85612
 20
0.293294
 30
0.0
 11
3.76167
 21
0.293294
 31
0.0
  0
LINE
  8
0
 62
     0
 10
3.76167
 20
0.293294
 30
0.0
 11
3.76167
 21
0.175239
 31
0.0
  0
LINE
  8
0
 62
     0
 10
3.76167
 20
0.175239
 30
0.0
 11
3.64361
 21
0.175239
 31
0.0
  0
LINE
  8
0
 62
     0
 10
3.64361
 20
0.175239
 30
0.0
 11
3.64361
 21
0.0807835
 31
0.0
  0
LINE
  8
0
 62
     0
 10
3.64361
 20
0.0807835
 30
0.0
 11
3.42312
 21
0.0807835
 31
0.0
  0
LINE
  8
0
 62
     0
 10
3.42312
 20
0.0807835
 30
0.0
 11
3.24539
 21
0.490126
 31
0.0
  0
LINE
  8
0
 62
     0
 10
3.24539
 20
0.490126
 30
0.0
 11
2.65994
 21
0.490126
 31
0.0
  0
LINE
  8
0
 62
     0
 10
2.65994
 20
0.490126
 30
0.0
 11
2.48215
 21
0.0807835
 31
0.0
  0
LINE
  8
0
 62
     0
 10
2.48215
 20
0.0807835
 30
0.0
 11
1.45475
 21
0.0807835
 31
0.0
  0
LINE
  8
0
 62
     0
 10
1.45475
 20
0.0807835
 30
0.0
 11
1.27696
 21
0.490126
 31
0.0
  0
LINE
  8
0
 62
     0
 10
1.27696
 20
0.490126
 30
0.0
 11
0.691569
 21
0.490126
 31
0.0
  0
LINE
  8
0
 62
     0
 10
0.691569
 20
0.490126
 30
0.0
 11
0.513781
 21
0.0807835
 31
0.0
  0
LINE
  8
0
 62
     0
 10
0.513781
 20
0.0807835
 30
0.0
 11
0.293294
 21
0.0807835
 31
0.0
  0
LINE
  8
0
 62
     0
 10
0.293294
 20
0.0807835
 30
0.0
 11
0.293294
 21
0.175239
 31
0.0
  0
LINE
  8
0
 62
     0
 10
0.293294
 20
0.175239
 30
0.0
 11
0.175239
 21
0.175239
 31
0.0
  0
LINE
  8
0
 62
     0
 10
0.175239
 20
0.175239
 30
0.0
 11
0.175239
 21
0.293294
 31
0.0
  0
LINE
  8
0
 62
     0
 10
0.175239
 20
0.293294
 30
0.0
 11
0.0804579
 21
0.293294
 31
0.0
  0
LINE
  8
0
 62
     0
 10
0.0804579
 20
0.293294
 30
0.0
 11
0.0804579
 21
0.513781
 31
0.0
  0
LINE
  8
0
 62
     0
 10
0.0804579
 20
0.513781
 30
0.0
 11
0.490181
 21
0.691515
 31
0.0
  0
LINE
  8
0
 62
     0
 10
0.490181
 20
0.691515
 30
0.0
 11
0.490181
 21
1.27696
 31
0.0
  0
LINE
  8
0
 62
     0
 10
0.490181
 20
1.27696
 30
0.0
 11
0.0804579
 21
1.45475
 31
0.0
  0
LINE
  8
0
 62
     0
 10
0.0804579
 20
1.45475
 30
0.0
 11
0.0804579
 21
2.48215
 31
0.0
  0
LINE
  8
0
 62
     0
 10
0.0804579
 20
2.48215
 30
0.0
 11
0.490181
 21
2.65994
 31
0.0
  0
LINE
  8
0
 62
     0
 10
0.490181
 20
2.65994
 30
0.0
 11
0.490181
 21
3.24533
 31
0.0
  0
LINE
  8
0
 62
     0
 10
0.490181
 20
3.24533
 30
0.0
 11
0.0804579
 21
3.42312
 31
0.0
  0
LINE
  8
0
 62
     0
 10
0.0804579
 20
3.42312
 30
0.0
 11
0.0804579
 21
3.64361
 31
0.0
  0
LINE
  8
0
 62
     0
 10
0.0804579
 20
3.64361
 30
0.0
 11
0.175239
 21
3.64361
 31
0.0
  0
LINE
  8
0
 62
     0
 10
0.175239
 20
3.64361
 30
0.0
 11
0.175239
 21
3.76167
 31
0.0
  0
LINE
  8
0
 62
     0
 10
0.175239
 20
3.76167
 30
0.0
 11
0.293294
 21
3.76167
 31
0.0
  0
LINE
  8
0
 62
     0
 10
0.293294
 20
3.76167
 30
0.0
 11
0.293294
 21
3.85644
 31
0.0
  0
ENDSEC
  0
EOF
